<?xml version="1.0" encoding="UTF-8"?>
<svg width="53px" height="53px" viewBox="0 0 53 53" version="1.1" xmlns="http://www.w3.org/2000/svg" xmlns:xlink="http://www.w3.org/1999/xlink">
    <!-- Generator: Sketch 48.2 (47327) - http://www.bohemiancoding.com/sketch -->
    <title>Untitled</title>
    <desc>Created with Sketch.</desc>
    <defs></defs>
    <g id="Page-1" stroke="none" stroke-width="1" fill="none" fill-rule="evenodd">
        <g id="footer-bg" fill="#2F2F2F" fill-rule="nonzero">
            <polygon id="Fill-201" points="6.4858661 14.9421545 9.07726615 12.2994661 21.3859649 13.427308 19.2279698 11.2232248 8.33867199 10.2280702 3.71929825 14.9421545 17.3227941 28.8245614 18.7078839 27.4166019"></polygon>
            <polygon id="Fill-202" points="28.8435723 13.883808 26.2573255 16.5257109 13.9473684 15.3945196 16.1019721 17.5979477 26.9941891 18.5964912 31.6140351 13.883808 18.0037304 0 16.6239172 1.41306804"></polygon>
            <polygon id="Fill-203" points="38.9913559 6.4864318 41.6340442 9.07655551 40.5080452 21.3859649 42.7047569 19.2311409 43.7017544 8.33961655 38.9913559 3.71929825 25.1052632 17.3255757 26.5187513 18.7127549"></polygon>
            <polygon id="Fill-204" points="39.1175931 27.9206894 36.4730618 25.3323719 37.6027466 13.0175439 35.4023491 15.1759803 34.4035088 26.0711171 39.1175931 30.6842105 53 17.077933 51.5920405 15.6961725"></polygon>
            <polygon id="Fill-205" points="48.3750235 39.9184288 45.7848998 42.5605935 33.4736842 41.4311326 35.6303144 43.6329365 46.5218388 44.6315789 51.1403509 39.9184288 37.5322672 26.0350877 36.1487004 27.4482958"></polygon>
            <polygon id="Fill-206" points="26.0142708 38.1891441 28.6005176 35.5467176 40.9122807 36.672605 38.755871 34.4742683 27.8690721 33.4736842 23.245614 38.1891441 36.8523066 52.0701754 38.237538 50.6605128"></polygon>
            <polygon id="Fill-207" points="14.9416874 46.511762 12.2992608 43.9216383 13.4288337 31.6140351 11.2286543 33.7652466 10.2280702 44.656771 14.9416874 49.2807018 28.8245614 35.6690056 27.4167414 34.2836326"></polygon>
            <polygon id="Fill-208" points="13.879656 26.0115069 16.5199782 28.5985472 15.3942023 40.9122807 17.5941638 38.757016 18.5964912 27.8650707 13.879656 23.245614 0 36.8528677 1.41136553 38.2367174"></polygon>
        </g>
    </g>
</svg>